<?xml version="1.0" encoding="utf-8"?>
<!-- Generator: Adobe Illustrator 22.0.1, SVG Export Plug-In . SVG Version: 6.00 Build 0)  -->
<svg version="1.1" id="Layer_1" xmlns="http://www.w3.org/2000/svg" xmlns:xlink="http://www.w3.org/1999/xlink" x="0px" y="0px"
	 viewBox="0 0 256 256" style="enable-background:new 0 0 256 256;" xml:space="preserve">
<style type="text/css">
	.st0{fill:none;stroke:#000000;stroke-miterlimit:10;}
	.st1{fill:none;}
	.st2{font-family:'Funkydori';}
	.st3{font-size:102.1305px;}
</style>
<path class="st0" d="M238.7,249.8H16.2c-6.6,0-12-5.4-12-12V15.3c0-6.6,5.4-12,12-12h222.5c6.6,0,12,5.4,12,12v222.5
	C250.7,244.4,245.3,249.8,238.7,249.8z"/>
<rect x="18.5" y="35.9" transform="matrix(1 -2.880701e-03 2.880701e-03 1 -0.2977 0.3701)" class="st1" width="219.6" height="135.3"/>
<text transform="matrix(1 0 0 1 61.844 115.9803)" class="st2 st3">324</text>
<g>
	<path d="M74.1,154.4c1-4.1,2.8-5.3,4.4-6.5c-7.9,0.5-13.6,6.3-13.6,10.3c0,1.9,0.9,2.8,2.5,2.8c0.8,0,1.7-0.4,2-0.4
		c0.4,0,0.6,0.2,0.6,0.7c0,1.7-3.4,6.1-8.1,6.1c-3.7,0-6.4-2.4-6.4-6.6c0-9.4,12.7-16,26-16c9.6,0,17.7,4.1,17.7,15.4
		c0,5-0.5,8.9-2,12.7c-3.2,8-8.8,12-15,12c-4,0-7.4-2.2-8.5-2.2c-1.4,0-4.4,2.2-6.1,2.2c-0.6,0-1-0.3-1-0.8c0-0.8,0.8-1.1,2-4.1
		C69.6,177.4,72.5,161,74.1,154.4z M85.2,148.3c-1,1.2-1.7,3-2.7,6.5c-2,7.1-4.6,22.7-4.6,24.4c0,1.6,0.9,2.3,2.5,2.3
		c3.5,0,6.5-3.9,8.2-9.4c1.3-4.1,1.9-8.6,1.9-13.7C90.5,151.4,88.1,148.7,85.2,148.3z"/>
	<path d="M99.5,179.9c0-3.8,2-7.7,2-9.9c0-1-0.4-1.1-0.4-1.9c0-1.3,3.2-2.2,6.7-2.2c1.3,0,2,0.5,2,1.6c0,2.4-1.9,6.2-1.9,10.1
		c0,1.6,0.9,2.5,2,2.5c1,0,1.5-0.5,2.3-1.3c0.4-0.4,0.7-0.6,1-0.6c0.5,0,0.8,0.5,0.8,0.8c0,0.7-0.4,1.1-1,1.9c-1.3,1.6-3.8,4-7.6,4
		C101.5,184.9,99.5,182.7,99.5,179.9z M107.5,154.6c2.2,0,3.4,1.4,3.4,3.2c0,2.4-2.2,5-4.4,5c-1.9,0-3.4-1.4-3.4-3.2
		C103.1,157.1,105.2,154.6,107.5,154.6z"/>
	<path d="M119,184.9c-4.1,0-6.8-2.8-6.8-7c0-5.9,3.6-12,12.2-12c3.2,0,4.3,1.1,5.3,1.1c1.3,0,3.2-1.1,4.9-1.1c0.6,0,0.9,0.2,0.9,0.9
		c0,1.1-1.1,2.3-2.7,12.7c-1.4,9.2-3.3,22.4-14.1,22.4c-4.4,0-8.2-2.5-8.2-6.7c0-4.8,3.8-6.8,5.2-6.8c0.4,0,0.7,0.2,0.7,0.5
		c0,0.6-0.5,0.9-0.5,2.2c0,1.7,1.4,2.8,3.4,2.8c5.2,0,6.3-10.4,6.4-11.8C125.3,182.6,122.8,184.9,119,184.9z M124.7,168.4
		c-3.1,0-4.7,6.5-4.7,9.6c0,1.6,0.8,2.8,2.1,2.8s2.4-1,3.1-2.8c0.7-1.9,1.5-6.1,1.5-7.9C126.7,169,126,168.4,124.7,168.4z"/>
	<path d="M135.1,179.9c0-3.8,2-7.7,2-9.9c0-1-0.4-1.1-0.4-1.9c0-1.3,3.2-2.2,6.7-2.2c1.3,0,2,0.5,2,1.6c0,2.4-1.9,6.2-1.9,10.1
		c0,1.6,0.9,2.5,2,2.5c1,0,1.5-0.5,2.3-1.3c0.4-0.4,0.7-0.6,1-0.6c0.5,0,0.8,0.5,0.8,0.8c0,0.7-0.4,1.1-1,1.9c-1.3,1.6-3.8,4-7.6,4
		C137.1,184.9,135.1,182.7,135.1,179.9z M143.1,154.6c2.2,0,3.4,1.4,3.4,3.2c0,2.4-2.2,5-4.4,5c-1.9,0-3.4-1.4-3.4-3.2
		C138.6,157.1,140.8,154.6,143.1,154.6z"/>
	<path d="M157.4,170.8c-0.5,1.7-1.3,4.8-1.3,6.8c0,1.8,0.9,2.5,2.3,2.5c1.2,0,2.4-1.1,3.4-1.9c0.4-0.4,0.7-0.6,1.1-0.6
		c0.5,0,0.8,0.4,0.8,0.7c0,0.3-0.1,0.7-0.5,1.2c-1.6,2-5.5,5.5-9.2,5.5c-4.3,0-6.2-2.6-6.2-5.8c0-3.8,1.9-6.8,1.9-9.8
		c0-0.8-1.6-0.3-1.6-1.4c0-0.6,0.4-1.7,1-1.7c3.2,0,6.1-3.1,7.7-5.6c0.6-1,1.1-1.3,1.6-1.3c0.7,0,1,0.5,1,1c0,1.3-0.8,3.8-0.8,4.8
		c0,0.8,0.2,1.2,2,1.2c0.5,0,0.8,0.2,0.8,0.7c0,1.2-0.7,2-1.4,2C158.5,168.9,157.8,169.4,157.4,170.8z"/>
	<path d="M180.5,184.9c-3.6,0-4.6-3.2-4.6-3.2s-3.2,3.2-7.6,3.2c-3.5,0-6.4-2.4-6.4-7c0-5.9,3.6-12,12.2-12c3.2,0,4.1,1.1,5,1.1
		c1,0,3.6-1.1,5-1.1c0.5,0,0.9,0.2,0.9,0.9c0,1.4-2.1,6.1-2.1,10.8c0,1.6,1,2.5,2,2.5c1,0,1.5-0.5,2.3-1.3c0.4-0.4,0.7-0.6,1-0.6
		c0.5,0,0.8,0.5,0.8,0.8c0,0.7-0.4,1.1-1,1.9C186.9,182.6,184.3,184.9,180.5,184.9z M174.6,168.5c-3.4,0-4.9,6.3-4.9,9.6
		c0,1.6,0.7,2.8,2,2.8c1.1,0,2.3-1,3.1-2.8c0.7-1.6,1.6-5.5,1.6-7.9C176.4,169.2,175.9,168.5,174.6,168.5z"/>
	<path d="M197.1,180.4c0.7,0,1.2-0.2,1.7-0.6c0.4-0.3,0.5-0.5,0.8-0.5c0.4,0,0.7,0.3,0.7,0.7c0,0.5-0.3,1-0.7,1.5
		c-1.4,1.8-3.2,3.4-6.3,3.4c-4,0-5.9-2.5-5.9-5.6c0-5.5,4.6-13.1,4.6-22.4c0-2-1-2.9-2.3-2.9c-0.5,0-0.8-0.2-0.8-0.7
		c0-1.3,3.2-3.2,6.6-3.2c3.1,0,5.1,1.7,5.1,4.7c0,5-4.8,17.2-4.8,23C195.7,179.6,196.3,180.4,197.1,180.4z"/>
</g>
</svg>
